<svg width="279.000000" height="75.000000" viewBox="0 0 279 75" fill="none" xmlns="http://www.w3.org/2000/svg" xmlns:xlink="http://www.w3.org/1999/xlink">
	<desc>
			Created with Pixso.
	</desc>
	<defs/>
	<path id="BISTRO BOSS" d="M58.68 8.41C58.25 8.32 57.93 8.24 57.72 8.15L57.72 14.74L58.04 14.71L58.04 14.49Q58.04 12.85 58.83 11.82Q58.97 11.64 59.13 11.48C59.85 10.73 60.87 10.35 62.17 10.33L65.31 10.33L65.31 28.82C65.28 29.38 65.07 29.86 64.67 30.26C64.28 30.65 63.81 30.84 63.26 30.84L62.84 30.84L62.84 31.16L74.33 31.16L74.33 30.84L73.91 30.84C73.36 30.84 72.88 30.65 72.47 30.26C72.09 29.86 71.89 29.38 71.87 28.82L71.87 10.33L75 10.33C76.3 10.35 77.32 10.73 78.04 11.48C78.77 12.2 79.13 13.21 79.13 14.49L79.13 14.71L79.45 14.74L79.45 8.15C79.26 8.24 78.94 8.32 78.49 8.41C78.04 8.49 77.55 8.57 77.02 8.63C76.51 8.7 76.01 8.73 75.55 8.73L61.63 8.73C61.18 8.73 60.69 8.7 60.15 8.63C59.62 8.57 59.13 8.49 58.68 8.41ZM48.07 8.38Q46.89 8.31 46.18 8.31Q44.04 8.31 42.44 8.98C41.39 9.41 40.55 10.05 39.91 10.9C39.27 11.76 38.88 12.8 38.73 14.04C38.54 15.55 38.77 16.91 39.43 18.1C40.11 19.3 41.19 20.24 42.66 20.92L47.88 23.35C49.1 23.91 49.96 24.46 50.47 25.02C51.01 25.57 51.27 26.19 51.27 26.87C51.27 27.68 50.9 28.41 50.15 29.05C49.43 29.69 48.3 30.01 46.76 30.01C45.27 30.01 43.99 29.7 42.92 29.08C41.85 28.46 41.05 27.65 40.52 26.65C39.99 25.64 39.75 24.59 39.82 23.48L39.53 23.48C39.19 23.93 38.89 24.54 38.63 25.3C38.4 26.05 38.26 26.81 38.22 27.58C38.17 28.34 38.27 28.99 38.5 29.53C38.89 29.91 39.43 30.26 40.14 30.58C40.86 30.88 41.73 31.13 42.73 31.32C43.73 31.51 44.85 31.61 46.09 31.61Q50.63 31.61 53.26 29.82C55.03 28.6 55.99 26.85 56.14 24.57C56.24 23.01 55.95 21.72 55.27 20.7Q54.96 20.23 54.58 19.83Q53.7 18.92 52.46 18.36L46.47 15.58Q45.29 15.03 44.39 14.39C43.82 13.96 43.56 13.37 43.62 12.6Q43.66 12.21 43.8 11.87Q44.1 11.18 44.87 10.68C45.64 10.17 46.67 9.91 47.98 9.91C49.55 9.91 50.79 10.27 51.69 11C52.61 11.72 53.06 12.67 53.06 13.85L53.38 13.85L53.99 9.3L53.99 9.3L54.09 8.63L51.31 8.63C51.07 8.61 50.81 8.59 50.54 8.57C49.68 8.48 48.86 8.42 48.07 8.38ZM126 9.72C124.02 8.78 121.65 8.31 118.9 8.31Q114.77 8.31 111.79 9.72C109.81 10.64 108.28 11.97 107.22 13.72Q105.62 16.31 105.62 19.96Q105.62 23.64 107.22 26.23C108.28 27.96 109.81 29.29 111.79 30.23C113.78 31.15 116.14 31.61 118.9 31.61C121.65 31.61 124.02 31.15 126 30.23C128 29.29 129.54 27.96 130.61 26.23C131.67 24.48 132.21 22.39 132.21 19.96C132.21 17.51 131.67 15.42 130.61 13.69C129.54 11.96 128 10.64 126 9.72ZM186.84 9.72C184.86 8.78 182.49 8.31 179.74 8.31Q175.61 8.31 172.64 9.72C170.65 10.64 169.13 11.97 168.06 13.72C166.99 15.45 166.46 17.53 166.46 19.96C166.46 22.41 166.99 24.5 168.06 26.23C169.13 27.96 170.65 29.29 172.64 30.23Q175.61 31.61 179.74 31.61C182.49 31.61 184.86 31.15 186.84 30.23C188.85 29.29 190.38 27.96 191.45 26.23C192.52 24.48 193.05 22.39 193.05 19.96C193.05 17.51 192.52 15.42 191.45 13.69C190.38 11.96 188.85 10.64 186.84 9.72ZM205.6 8.38Q204.42 8.31 203.72 8.31Q201.57 8.31 199.97 8.98C198.93 9.41 198.08 10.05 197.44 10.9Q196.48 12.18 196.26 14.04C196.07 15.55 196.3 16.91 196.96 18.1Q197.05 18.25 197.14 18.39Q198.17 19.98 200.2 20.92L205.41 23.35C206.63 23.91 207.49 24.46 208 25.02C208.54 25.57 208.8 26.19 208.8 26.87C208.8 27.68 208.43 28.41 207.68 29.05C206.96 29.69 205.83 30.01 204.29 30.01Q202.05 30.01 200.45 29.08C199.39 28.46 198.59 27.65 198.05 26.65C197.52 25.64 197.28 24.59 197.35 23.48L197.06 23.48C196.72 23.93 196.42 24.54 196.16 25.3C195.93 26.05 195.79 26.81 195.75 27.58C195.71 28.34 195.8 28.99 196.04 29.53C196.42 29.91 196.96 30.26 197.67 30.58C198.39 30.88 199.26 31.13 200.26 31.32C201.26 31.51 202.38 31.61 203.62 31.61C206.65 31.61 209.04 31.01 210.79 29.82C212.56 28.6 213.52 26.85 213.67 24.57C213.77 23.01 213.49 21.72 212.8 20.7C212.12 19.67 211.18 18.89 209.99 18.36L204 15.58C203.21 15.21 202.52 14.82 201.92 14.39C201.35 13.96 201.09 13.37 201.16 12.6Q201.19 12.21 201.33 11.87Q201.63 11.18 202.4 10.68C203.17 10.17 204.21 9.91 205.51 9.91Q207.88 9.91 209.22 11Q209.9 11.54 210.25 12.24Q210.6 12.96 210.6 13.85L210.92 13.85L211.52 9.3L211.52 9.3L211.62 8.63L208.85 8.63C208.6 8.61 208.34 8.59 208.07 8.57C207.21 8.48 206.39 8.42 205.6 8.38ZM226.23 8.38Q225.04 8.31 224.34 8.31Q222.2 8.31 220.6 8.98C219.55 9.41 218.71 10.05 218.07 10.9Q217.11 12.18 216.88 14.04C216.69 15.55 216.93 16.91 217.59 18.1Q217.67 18.25 217.77 18.39Q218.79 19.98 220.82 20.92L226.04 23.35C227.25 23.91 228.12 24.46 228.63 25.02C229.16 25.57 229.43 26.19 229.43 26.87C229.43 27.68 229.06 28.41 228.31 29.05C227.58 29.69 226.45 30.01 224.92 30.01Q222.68 30.01 221.08 29.08C220.01 28.46 219.21 27.65 218.68 26.65C218.14 25.64 217.91 24.59 217.97 23.48L217.68 23.48C217.34 23.93 217.04 24.54 216.79 25.3C216.55 26.05 216.42 26.81 216.37 27.58C216.33 28.34 216.43 28.99 216.66 29.53C217.04 29.91 217.59 30.26 218.29 30.58C219.02 30.88 219.88 31.13 220.88 31.32C221.89 31.51 223.01 31.61 224.24 31.61C227.27 31.61 229.66 31.01 231.41 29.82C233.18 28.6 234.14 26.85 234.29 24.57C234.4 23.01 234.11 21.72 233.43 20.7C232.75 19.67 231.81 18.89 230.61 18.36L224.63 15.58C223.84 15.21 223.15 14.82 222.55 14.39C221.97 13.96 221.72 13.37 221.78 12.6Q221.81 12.21 221.96 11.87Q222.25 11.18 223.03 10.68C223.8 10.17 224.83 9.91 226.13 9.91Q228.5 9.91 229.85 11Q230.53 11.54 230.87 12.24Q231.22 12.96 231.22 13.85L231.54 13.85L232.14 9.3L232.15 9.3L232.24 8.63L229.47 8.63C229.22 8.61 228.96 8.59 228.69 8.57C227.84 8.48 227.02 8.42 226.23 8.38ZM3.52 8.76L0.96 8.76L0.96 9.08L1.37 9.08Q1.78 9.08 2.12 9.22Q2.48 9.38 2.78 9.69C3.18 10.07 3.4 10.54 3.42 11.1L3.42 28.82C3.4 29.38 3.18 29.86 2.78 30.26C2.4 30.65 1.93 30.84 1.37 30.84L0.96 30.84L0.96 31.16L12.6 31.16Q15.52 31.16 17.76 30.49C19.27 30.04 20.45 29.35 21.31 28.41Q21.66 28.02 21.91 27.59Q22.62 26.38 22.62 24.76C22.62 23.56 22.35 22.55 21.82 21.72C21.29 20.87 20.57 20.2 19.68 19.74C18.8 19.27 17.84 19.01 16.79 18.97C17.52 18.95 18.19 18.76 18.81 18.42C19.45 18.08 19.97 17.57 20.38 16.89C20.78 16.2 20.99 15.35 20.99 14.33Q20.99 12.41 20.05 11.27Q19.9 11.09 19.74 10.94C18.93 10.12 17.85 9.56 16.51 9.24Q14.49 8.76 12.09 8.76L3.52 8.76ZM9.98 10.36L9.98 29.53L10.4 29.53C11.25 29.53 12.03 29.36 12.73 29.02C13.46 28.67 14.03 28.12 14.46 27.35Q15.1 26.2 15.1 24.28C15.1 23.51 15.01 22.83 14.84 22.23Q14.59 21.3 14.08 20.66C13.76 20.21 13.34 19.88 12.83 19.67C12.34 19.44 11.75 19.32 11.07 19.32L11.07 19.03C11.58 19.03 12.03 18.94 12.41 18.74C12.8 18.55 13.1 18.28 13.34 17.94C13.6 17.58 13.79 17.14 13.92 16.63Q14.11 15.83 14.11 14.84Q14.11 13.11 13.6 12.15C13.28 11.49 12.84 11.03 12.28 10.78Q11.45 10.36 10.4 10.36L9.98 10.36ZM26.92 8.76L24.36 8.76L24.36 9.08L24.78 9.08Q25.18 9.08 25.53 9.22Q25.89 9.38 26.19 9.69C26.59 10.07 26.8 10.54 26.83 11.1L26.83 28.82C26.8 29.38 26.59 29.86 26.19 30.26C25.8 30.65 25.33 30.84 24.78 30.84L24.36 30.84L24.36 31.16L35.85 31.16L35.85 30.84L35.43 30.84Q35.03 30.84 34.67 30.7Q34.3 30.56 33.99 30.26C33.61 29.86 33.41 29.38 33.39 28.82L33.39 11.1C33.41 10.54 33.61 10.07 33.99 9.69Q34.33 9.35 34.74 9.2Q35.06 9.08 35.43 9.08L35.85 9.08L35.85 8.76L26.92 8.76ZM83.43 8.76L80.87 8.76L80.87 9.08L81.28 9.08C81.84 9.08 82.31 9.28 82.69 9.69C83.09 10.07 83.31 10.54 83.33 11.1L83.33 28.82C83.31 29.38 83.09 29.86 82.69 30.26C82.31 30.65 81.84 30.84 81.28 30.84L80.87 30.84L80.87 31.16L92.35 31.16L92.35 30.84L91.97 30.84C91.41 30.84 90.93 30.65 90.53 30.26C90.12 29.86 89.92 29.38 89.92 28.82L89.92 10.42L91.33 10.42Q92.16 10.42 92.86 10.73Q93.36 10.96 93.79 11.35C94.5 11.97 94.89 13.07 94.98 14.65C95 14.95 95 15.2 94.98 15.42C94.96 15.61 94.93 15.79 94.91 15.96Q94.75 17.34 94.27 18.2C93.95 18.78 93.56 19.2 93.09 19.48C92.62 19.76 92.09 19.9 91.49 19.9L90.98 19.9L90.98 20.21C91.28 20.32 91.57 20.51 91.87 20.79C92.17 21.07 92.43 21.59 92.64 22.36C92.73 22.64 92.8 22.94 92.87 23.26C92.93 23.55 92.99 23.87 93.06 24.22Q93.19 24.7 93.35 25.24C93.45 25.6 93.58 25.98 93.73 26.36C93.88 26.74 94.07 27.13 94.31 27.51C94.97 28.62 95.72 29.43 96.58 29.94C97.45 30.46 98.43 30.79 99.52 30.94C100.61 31.08 101.79 31.16 103.07 31.16L107.07 31.16L107.07 30.84C106.56 30.82 106.11 30.74 105.73 30.62C105.37 30.49 105 30.25 104.64 29.91C104.28 29.57 103.85 29.07 103.36 28.41C103.06 28 102.76 27.56 102.47 27.1C102.17 26.63 101.88 26.18 101.6 25.75L100.96 24.63C100.79 24.33 100.68 24.15 100.64 24.09Q100.07 23.13 99.07 22.2C98.41 21.58 97.63 21.14 96.74 20.89C98.08 20.67 99.12 20.25 99.84 19.61C100.59 18.95 101.11 18.19 101.41 17.34C101.71 16.46 101.86 15.62 101.86 14.81C101.86 13.57 101.6 12.56 101.09 11.77C100.58 10.98 99.91 10.37 99.07 9.94C98.24 9.5 97.32 9.19 96.32 9.02C95.32 8.84 94.34 8.76 93.38 8.76L83.43 8.76ZM144.98 8.76L142.42 8.76L142.42 9.08L142.84 9.08Q143.25 9.08 143.59 9.22Q143.95 9.38 144.25 9.69C144.65 10.07 144.87 10.54 144.89 11.1L144.89 28.82C144.87 29.38 144.65 29.86 144.25 30.26C143.86 30.65 143.39 30.84 142.84 30.84L142.42 30.84L142.42 31.16L154.07 31.16Q156.98 31.16 159.22 30.49C160.74 30.04 161.92 29.35 162.78 28.41Q163.13 28.02 163.38 27.59Q164.09 26.38 164.09 24.76C164.09 23.56 163.82 22.55 163.29 21.72C162.75 20.87 162.04 20.2 161.14 19.74C160.27 19.27 159.31 19.01 158.26 18.97C158.99 18.95 159.66 18.76 160.28 18.42C160.92 18.08 161.44 17.57 161.85 16.89Q162.46 15.86 162.46 14.33Q162.46 12.41 161.52 11.27Q161.37 11.09 161.21 10.94C160.4 10.12 159.32 9.56 157.98 9.24C156.63 8.92 155.16 8.76 153.56 8.76L144.98 8.76ZM151.45 10.36L151.45 29.53L151.86 29.53C152.72 29.53 153.5 29.36 154.2 29.02C154.92 28.67 155.5 28.12 155.93 27.35Q156.57 26.2 156.57 24.28C156.57 23.51 156.48 22.83 156.31 22.23C156.14 21.61 155.89 21.09 155.54 20.66C155.22 20.21 154.81 19.88 154.3 19.67C153.81 19.44 153.22 19.32 152.54 19.32L152.54 19.03C153.05 19.03 153.5 18.94 153.88 18.74C154.26 18.55 154.57 18.28 154.81 17.94C155.06 17.58 155.26 17.14 155.38 16.63C155.51 16.1 155.58 15.5 155.58 14.84C155.58 13.69 155.41 12.79 155.06 12.15C154.74 11.49 154.31 11.03 153.75 10.78Q152.92 10.36 151.86 10.36L151.45 10.36ZM122.26 28.82C121.34 29.61 120.22 30.01 118.9 30.01C117.59 30.01 116.47 29.61 115.54 28.82C114.62 28.01 113.91 26.86 113.42 25.37C112.93 23.87 112.69 22.07 112.69 19.96C112.69 17.85 112.93 16.04 113.42 14.55C113.91 13.06 114.62 11.92 115.54 11.13C116.47 10.32 117.59 9.91 118.9 9.91C120.22 9.91 121.34 10.32 122.26 11.13C123.19 11.92 123.91 13.06 124.4 14.55C124.89 16.04 125.14 17.85 125.14 19.96C125.14 22.07 124.89 23.87 124.4 25.37C123.91 26.86 123.19 28.01 122.26 28.82ZM183.1 28.82C182.18 29.61 181.06 30.01 179.74 30.01Q178.52 30.01 177.51 29.54Q176.91 29.27 176.38 28.82C175.46 28.01 174.76 26.86 174.27 25.37Q173.53 23.13 173.53 19.96Q173.53 16.79 174.27 14.55C174.76 13.06 175.46 11.92 176.38 11.13Q176.94 10.64 177.6 10.35Q178.57 9.91 179.74 9.91C181.06 9.91 182.18 10.32 183.1 11.13C184.04 11.92 184.75 13.06 185.24 14.55Q185.98 16.79 185.98 19.96Q185.98 23.13 185.24 25.37C184.75 26.86 184.04 28.01 183.1 28.82Z" fill="#FFFFFF" fill-opacity="1.000000" fill-rule="evenodd"/>
	<path id="Restaurant" d="M3 49.44L1.08 49.44L1.08 49.68L1.39 49.68Q1.69 49.68 1.95 49.79Q2.22 49.91 2.44 50.14C2.75 50.43 2.91 50.78 2.92 51.2L2.92 64.49C2.91 64.91 2.75 65.27 2.44 65.57C2.16 65.86 1.8 66 1.39 66L1.08 66L1.08 66.24L8.35 66.24L8.35 66L8.06 66C7.64 66 7.28 65.86 6.98 65.57C6.68 65.27 6.52 64.91 6.52 64.49L6.52 50.5L7.6 50.5Q8.01 50.48 8.35 50.5C9.13 50.52 9.79 50.8 10.32 51.34C10.84 51.87 11.13 52.71 11.18 53.86C11.2 54.1 11.19 54.32 11.16 54.51C11.14 54.7 11.12 54.87 11.08 55.01C10.96 55.72 10.73 56.27 10.41 56.67Q9.94 57.26 9.32 57.53Q9.31 57.53 9.31 57.53C8.91 57.71 8.49 57.8 8.06 57.8L7.32 57.8L7.32 58.04C7.64 58.08 7.93 58.24 8.2 58.49C8.49 58.75 8.74 59.13 8.95 59.64C9 59.79 9.08 59.99 9.19 60.24C9.3 60.5 9.43 60.79 9.57 61.11C9.73 61.41 9.89 61.73 10.05 62.07C10.21 62.4 10.36 62.72 10.51 63.03C10.67 63.32 10.81 63.56 10.94 63.75Q11.54 64.68 12.36 65.24Q13.17 65.79 14.23 66.03C14.93 66.17 15.72 66.24 16.58 66.24L18.93 66.24L18.93 66C18.52 65.99 18.15 65.92 17.83 65.81C17.51 65.68 17.2 65.49 16.92 65.24C16.63 64.96 16.31 64.61 15.96 64.18C15.73 63.89 15.48 63.56 15.21 63.17C14.94 62.79 14.68 62.41 14.42 62.04C14.18 61.66 13.97 61.34 13.8 61.08C13.64 60.83 13.55 60.68 13.53 60.65C13.26 60.24 12.91 59.82 12.48 59.4Q11.92 58.85 11.25 58.6Q11.17 58.57 11.08 58.54C12 58.44 12.74 58.16 13.32 57.7Q13.95 57.17 14.34 56.5Q14.48 56.26 14.59 56Q15.02 54.99 15.02 53.98L15.02 53.98Q15.02 52.71 14.54 51.84C14.22 51.27 13.79 50.8 13.24 50.45C12.72 50.1 12.11 49.84 11.42 49.68Q11.28 49.65 11.14 49.62Q10.24 49.44 9.31 49.44L3 49.44ZM99.27 56.54L97.12 61.54L101.39 61.54L99.27 56.54ZM101.79 62.48L96.72 62.48L95.75 64.73C95.6 65.13 95.64 65.44 95.85 65.67C96.07 65.89 96.32 66 96.59 66L96.78 66L96.78 66.24L91.98 66.24L91.98 66L92.18 66C92.5 66 92.83 65.91 93.18 65.72C93.54 65.51 93.82 65.16 94.05 64.66L94.05 64.66L98.97 54.1C99 54 99.07 53.84 99.18 53.6C99.3 53.34 99.42 53.06 99.54 52.76C99.67 52.44 99.79 52.14 99.9 51.87C100.02 51.58 100.08 51.36 100.1 51.2L100.29 51.2L106.7 64.66L106.7 64.66C106.94 65.16 107.23 65.51 107.58 65.72Q108.11 66 108.59 66L108.78 66L108.78 66.24L101.73 66.24L101.73 66L101.92 66C102.19 66 102.44 65.89 102.66 65.67C102.85 65.47 102.9 65.21 102.81 64.89L101.79 62.48ZM174.42 56.54L172.27 61.54L176.54 61.54L174.42 56.54ZM176.94 62.48L171.87 62.48L170.9 64.73C170.75 65.13 170.78 65.44 171 65.67Q171.25 65.92 171.54 65.98Q171.64 66 171.74 66L171.93 66L171.93 66.24L167.13 66.24L167.13 66L167.32 66C167.64 66 167.98 65.91 168.33 65.72C168.68 65.51 168.97 65.16 169.2 64.66L169.2 64.66L174.12 54.1C174.15 54 174.22 53.84 174.33 53.6C174.44 53.34 174.56 53.06 174.69 52.76C174.82 52.44 174.94 52.14 175.05 51.87C175.16 51.58 175.23 51.36 175.24 51.2L175.44 51.2L181.84 64.66L181.84 64.66C182.08 65.16 182.38 65.51 182.73 65.72C183.08 65.91 183.42 66 183.74 66L183.93 66L183.93 66.24L176.88 66.24L176.88 66L177.07 66C177.34 66 177.59 65.89 177.81 65.67C178 65.47 178.05 65.21 177.96 64.89L176.94 62.48ZM71.48 51.6Q71.08 51.51 70.86 51.46L70.86 55.25L71.12 55.25L71.12 55.04C71.12 54.35 71.31 53.8 71.68 53.4C72.06 53 72.6 52.8 73.31 52.78L76.07 52.78L76.07 64.73C76.05 65.08 75.92 65.39 75.66 65.64C75.42 65.88 75.12 66 74.77 66L74.51 66L74.51 66.24L81.13 66.24L81.13 66L80.87 66C80.5 66 80.19 65.88 79.93 65.64C79.68 65.39 79.55 65.08 79.55 64.73L79.55 52.78L82.33 52.78C83.02 52.8 83.56 53 83.94 53.4Q84.06 53.52 84.16 53.66Q84.54 54.21 84.52 55.04L84.52 55.25L84.78 55.25L84.78 51.46C84.67 51.51 84.47 51.56 84.18 51.63C83.89 51.68 83.57 51.72 83.22 51.77C82.87 51.8 82.54 51.82 82.24 51.82L73.38 51.82Q72.95 51.82 72.42 51.77C72.08 51.72 71.77 51.67 71.48 51.6ZM221.03 51.6C220.76 51.54 220.55 51.49 220.41 51.46L220.41 55.25L220.67 55.25L220.67 55.04C220.67 54.35 220.86 53.8 221.23 53.4C221.61 53 222.15 52.8 222.86 52.78L225.62 52.78L225.62 64.73C225.6 65.08 225.47 65.39 225.21 65.64C224.97 65.88 224.67 66 224.32 66L224.06 66L224.06 66.24L230.68 66.24L230.68 66L230.42 66C230.05 66 229.74 65.88 229.48 65.64C229.23 65.39 229.1 65.08 229.1 64.73L229.1 52.78L231.88 52.78C232.57 52.8 233.11 53 233.49 53.4Q233.61 53.52 233.7 53.66Q234.08 54.21 234.07 55.04L234.07 55.25L234.33 55.25L234.33 51.46C234.22 51.51 234.02 51.56 233.73 51.63C233.44 51.68 233.12 51.72 232.77 51.77C232.42 51.8 232.09 51.82 231.79 51.82L222.93 51.82C222.64 51.82 222.32 51.8 221.97 51.77C221.63 51.72 221.32 51.67 221.03 51.6ZM38.52 51.84L38.52 51.48C38.33 51.55 37.98 51.63 37.47 51.72C36.96 51.8 36.47 51.84 36 51.84L27.58 51.84L27.58 52.08L27.89 52.08C28.24 52.08 28.54 52.2 28.78 52.44C29.04 52.68 29.17 52.99 29.19 53.36L29.19 64.73C29.17 65.08 29.04 65.39 28.78 65.64C28.54 65.88 28.24 66 27.89 66L27.58 66L27.58 66.24L38.88 66.24L39.8 61.83L39.58 61.83C39.37 62.53 39.08 63.15 38.69 63.68C38.31 64.19 37.84 64.59 37.3 64.87C36.77 65.15 36.16 65.28 35.48 65.28L32.64 65.28L32.64 59.6L35.38 59.6C35.94 59.61 36.38 59.8 36.7 60.15C37.04 60.5 37.2 60.94 37.2 61.47L37.2 61.66L37.44 61.66L37.44 56.57L37.2 56.57L37.2 56.74Q37.2 57.22 37.02 57.62Q36.9 57.87 36.7 58.08C36.38 58.44 35.94 58.62 35.38 58.64L32.64 58.64L32.64 52.8L36.1 52.8C36.8 52.82 37.34 53.03 37.71 53.43C38.09 53.83 38.28 54.38 38.28 55.08L38.28 55.3L38.52 55.3L38.52 51.84ZM197.84 56.85L197.84 64.78C197.86 65.13 197.99 65.43 198.25 65.67C198.51 65.89 198.81 66 199.16 66L199.57 66L199.57 66.24L192.85 66.24L192.85 66L193.23 66C193.6 66 193.91 65.89 194.17 65.67C194.43 65.43 194.55 65.13 194.55 64.78L194.55 54.24C194.55 53.43 194.51 52.77 194.43 52.28L194.31 51.51L194.53 51.51L205.55 61.19L205.55 53.31C205.53 52.96 205.39 52.67 205.14 52.44Q205.01 52.31 204.85 52.23Q204.58 52.08 204.23 52.08L203.82 52.08L203.82 51.84L210.56 51.84L210.56 52.08L210.15 52.08C209.8 52.08 209.49 52.2 209.22 52.44C208.96 52.67 208.83 52.96 208.83 53.31L208.83 63.75C208.83 64.31 208.85 64.8 208.88 65.24C208.93 65.65 208.97 65.98 209 66.22L209.07 66.56L208.86 66.56L197.84 56.85ZM56.29 51.58C55.85 51.55 55.46 51.53 55.14 51.53C54.34 51.53 53.63 51.68 53.01 51.96C52.38 52.25 51.88 52.67 51.49 53.21C51.13 53.76 50.9 54.41 50.82 55.18C50.73 56 50.85 56.75 51.21 57.44Q51.27 57.55 51.33 57.65Q51.89 58.53 52.96 59.09L56.37 61.25C57.01 61.59 57.46 61.93 57.73 62.28C58.02 62.62 58.17 63 58.17 63.44C58.17 64.01 57.93 64.51 57.47 64.95C57.01 65.38 56.31 65.6 55.38 65.6C54.53 65.6 53.81 65.42 53.2 65.07C52.59 64.7 52.13 64.21 51.81 63.6C51.5 63 51.37 62.33 51.42 61.61L51.23 61.61C51.04 61.92 50.88 62.3 50.75 62.76C50.62 63.21 50.55 63.67 50.53 64.13C50.52 64.58 50.57 64.96 50.7 65.28C50.93 65.52 51.25 65.74 51.66 65.93C52.09 66.12 52.61 66.28 53.2 66.39C53.79 66.5 54.43 66.56 55.12 66.56C56.24 66.56 57.21 66.39 58.02 66.05C58.85 65.7 59.5 65.19 59.97 64.54C60.45 63.88 60.71 63.11 60.76 62.21C60.81 61.35 60.65 60.61 60.28 60C59.91 59.4 59.41 58.93 58.77 58.61L55 56.28C54.69 56.11 54.41 55.93 54.16 55.76C53.92 55.58 53.73 55.38 53.58 55.16C53.45 54.92 53.41 54.65 53.44 54.36C53.47 53.8 53.72 53.36 54.18 53.02C54.66 52.68 55.29 52.52 56.05 52.52Q57.49 52.52 58.26 53.16C58.77 53.6 59.03 54.18 59.03 54.92L59.25 54.92L59.56 51.99C59.55 51.99 59.55 51.98 59.55 51.98L59.56 51.75L58.19 51.75C58.02 51.73 57.85 51.71 57.66 51.7C57.21 51.65 56.76 51.61 56.29 51.58ZM118.51 51.84L123.34 51.84L123.34 52.06L123 52.06C122.7 52.06 122.44 52.16 122.23 52.35C122.02 52.54 121.92 52.79 121.92 53.09L121.92 60.89C121.92 62.36 122.26 63.52 122.93 64.35C123.62 65.18 124.57 65.6 125.78 65.6C127.05 65.6 128.02 65.2 128.71 64.42C129.42 63.64 129.78 62.55 129.79 61.16L129.79 53.09C129.78 52.79 129.66 52.54 129.46 52.35C129.25 52.16 129 52.06 128.71 52.06L128.38 52.06L128.38 51.84L132.79 51.84L132.79 52.06L132.48 52.06C132.18 52.06 131.91 52.16 131.69 52.35C131.48 52.54 131.38 52.79 131.38 53.09L131.38 61.01C131.38 62.72 130.85 64.08 129.79 65.07C128.75 66.06 127.27 66.56 125.35 66.56C123.03 66.56 121.3 66.07 120.17 65.09Q119.63 64.62 119.26 64.03Q118.46 62.78 118.46 61.04L118.46 53.09C118.45 52.79 118.34 52.54 118.13 52.35C117.92 52.16 117.66 52.06 117.36 52.06L117.02 52.06L117.02 51.84L118.51 51.84ZM145.13 51.84L143.4 51.84L143.4 52.08L143.71 52.08C144.05 52.08 144.34 52.2 144.58 52.44C144.78 52.62 144.91 52.85 144.96 53.12L144.96 64.94C144.91 65.2 144.78 65.44 144.58 65.64C144.34 65.88 144.04 66 143.69 66L143.4 66L143.4 66.24L150 66.24L150 66L149.76 66C149.44 66 149.14 65.89 148.85 65.67C148.58 65.44 148.44 65.13 148.44 64.73L148.44 52.83C148.57 52.84 148.75 52.85 148.97 52.85Q149.35 52.83 149.81 52.85C150.02 52.85 150.26 52.89 150.53 52.97C150.82 53.04 151.1 53.16 151.37 53.36C151.64 53.53 151.87 53.8 152.04 54.17C152.23 54.52 152.35 55 152.38 55.59C152.39 55.81 152.39 56.01 152.35 56.19C152.34 56.36 152.31 56.5 152.28 56.6Q152.09 57.6 151.68 58.13C151.41 58.47 151.11 58.7 150.77 58.83C150.45 58.94 150.12 59 149.79 59L149.19 59L149.19 59.21C149.41 59.21 149.65 59.33 149.91 59.57C150.18 59.8 150.42 60.16 150.63 60.68C150.67 60.87 150.75 61.11 150.87 61.4C150.99 61.68 151.14 61.98 151.3 62.28L151.78 63.2C151.94 63.48 152.09 63.73 152.23 63.94C152.6 64.53 153 65 153.43 65.36C153.88 65.69 154.4 65.92 154.99 66.05C155.6 66.18 156.34 66.24 157.2 66.24L159.22 66.24L159.22 66C158.88 66 158.59 65.96 158.33 65.86Q157.95 65.72 157.59 65.38C157.35 65.14 157.07 64.8 156.75 64.37C156.47 63.99 156.21 63.62 155.95 63.27C155.71 62.9 155.51 62.58 155.35 62.31C155.19 62.02 155.08 61.81 155.02 61.68C154.78 61.32 154.44 60.92 154.01 60.51C153.59 60.09 153.15 59.81 152.69 59.67C153.47 59.54 154.11 59.28 154.59 58.88Q155.19 58.39 155.53 57.75Q155.6 57.61 155.67 57.46C155.91 56.9 156.03 56.34 156.03 55.78C156.03 55.03 155.87 54.4 155.57 53.91C155.28 53.4 154.89 53 154.39 52.71C153.9 52.4 153.34 52.19 152.71 52.06C152.09 51.92 151.45 51.84 150.79 51.84L145.13 51.84Z" fill="#ffffff" fill-opacity="1.000000" fill-rule="evenodd" />
</svg>
